# xmcd
#
# Track frame offsets:
# 150
# 19877
# 36983
# 62136
# 81622
# 111351
# 132065
# 152082
# 173351
# 195165
# 220400
# 247734
# 275014
#
# Disc length: 4131 seconds
#
#
# Revision: 0
# Processed by: cddbd v1.5PL3 Copyright (c) Steve Scherf et al.
# Submitted via: FreeRIP 2.53 
#
DISCID=b110210d
DTITLE=Elliott Murphy - Somewhere In These Nightlights - CD1
DYEAR=1997
DGENRE=Country
TTITLE0=You never know what you're in for
TTITLE1=Sicily
TTITLE2=A whole new world
TTITLE3=Destiny
TTITLE4=Something like Steve Mc Queen
TTITLE5=Take your love away
TTITLE6=Drive all night
TTITLE7=On Elvis Presley's birthday
TTITLE8=Stolen Car
TTITLE9=Real time
TTITLE10=White middle class blues
TTITLE11=Diamonds by the yard
TTITLE12=The epicenter - Runeway - House of rising sun
EXTD=A live recording - \nSens-théàtre, France, March 1st, 1997
EXTT0=
EXTT1=
EXTT2=
EXTT3=
EXTT4=
EXTT5=
EXTT6=
EXTT7=
EXTT8=
EXTT9=
EXTT10=
EXTT11=
EXTT12=
PLAYORDER=
